<?xml version="1.0" encoding="UTF-8" standalone="no"?>
<!-- Created with Inkscape (http://www.inkscape.org/) -->

<svg
   width="3840"
   height="2160"
   viewBox="0 0 1016 571.50002"
   version="1.1"
   id="svg2329"
   sodipodi:docname="top-waves.svg"
   inkscape:version="1.1.2 (b8e25be833, 2022-02-05)"
   xmlns:inkscape="http://www.inkscape.org/namespaces/inkscape"
   xmlns:sodipodi="http://sodipodi.sourceforge.net/DTD/sodipodi-0.dtd"
   xmlns="http://www.w3.org/2000/svg"
   xmlns:svg="http://www.w3.org/2000/svg">
  <sodipodi:namedview
     id="namedview2331"
     pagecolor="#ffffff"
     bordercolor="#666666"
     borderopacity="1.0"
     inkscape:pageshadow="2"
     inkscape:pageopacity="0.0"
     inkscape:pagecheckerboard="0"
     inkscape:document-units="mm"
     showgrid="false"
     inkscape:zoom="0.16"
     inkscape:cx="2578.125"
     inkscape:cy="512.5"
     inkscape:window-width="1920"
     inkscape:window-height="1009"
     inkscape:window-x="-8"
     inkscape:window-y="-8"
     inkscape:window-maximized="1"
     inkscape:current-layer="layer1"
     width="3840mm"
     units="px" />
  <defs
     id="defs2326" />
  <g
     inkscape:label="Capa 1"
     inkscape:groupmode="layer"
     id="layer1">
    <path
       d="m 1018.7227,455.49897 c -54.50236,7.93974 -98.10979,17.45763 -172.43838,24.31696 -28.64246,2.54467 -57.28572,3.09416 -85.92986,1.48666 -28.64414,-1.60747 -57.28914,-5.37194 -85.9343,-9.51387 -28.64513,-4.08801 -57.29044,-8.60742 -85.93501,-11.29339 -28.64457,-2.68599 -57.08631,-4.68252 -71.40826,-5.16271 l -14.38128,2.19434 c 2.57911,52.69418 0.0888,-86.92076 -0.095,116.61755 l 14.32173,-0.006 71.60869,-0.0255 85.93046,-0.0308 85.93044,-0.0308 85.93044,-0.0308 85.93045,-0.0308 71.60868,-0.0257 14.3217,-0.004 z"
       fill="#f36575"
       id="path2"
       sodipodi:nodetypes="ccscscccccccccccc"
       style="stroke-width:0.555801" />
    <path
       d="m 1018.5528,487.89722 c -28.08814,9.10557 -63.27449,15.49767 -88.33342,15.8311 -28.64341,0.17201 -55.27969,5.57395 -83.92316,5.58421 -28.64348,0.0102 -57.28391,7.56987 -85.92799,6.12415 -28.64405,-1.39181 -57.29175,-11.84287 -85.9365,-14.96024 -28.64474,-3.11738 -57.28658,0.99112 -85.93035,0.30033 -25.50491,0.30441 -47.14799,-8.69667 -71.19354,-10.50581 -4.78541,-0.36005 -10.03942,-0.30547 -15.02757,0.0214 l 0.32026,83.85218 14.32173,-0.006 71.60871,-0.0255 85.93046,-0.0308 85.93044,-0.0308 85.93044,-0.0308 85.93044,-0.0308 71.60875,-0.0257 14.3217,-0.004 z"
       fill="#e00e38"
       id="path4"
       sodipodi:nodetypes="ccscscsccccccccccc"
       style="stroke-width:0.555801" />
    <path
       d="m 1018.6951,531.19991 c -30.8149,-1.14791 -61.36592,-2.05834 -86.4598,-0.51017 -28.6427,1.95151 -57.28326,9.1876 -85.92702,8.55074 -28.64375,-0.63684 -57.29061,-9.0388 -85.93561,-12.80326 -28.64502,-3.76446 -57.28815,-2.89145 -85.93023,0.56995 -28.64211,3.40747 -57.28321,9.34938 -85.92626,10.4381 -28.64306,1.08871 -57.28804,-2.67573 -71.61055,-4.55799 l -14.3225,-1.88223 0.0172,43.13944 14.32174,-0.006 71.60871,-0.0255 85.93046,-0.0308 85.93044,-0.0308 85.93044,-0.0308 85.93044,-0.0308 71.63434,0.71317 14.3218,-0.004 z"
       fill="#a5072d"
       id="path6"
       sodipodi:nodetypes="ccsscssccccccccccc"
       style="stroke-width:0.555801" />
    <path
       d="m 517.07689,455.33262 c -54.50235,7.93976 -98.10978,17.45763 -172.43837,24.31697 -28.64246,2.54469 -57.28572,3.09415 -85.92986,1.48668 -28.64414,-1.6075 -57.28914,-5.37196 -85.9343,-9.5139 -28.64514,-4.08801 -57.29044,-8.60742 -85.935025,-11.29339 -28.644573,-2.68599 -57.086314,-4.68252 -71.408245,-5.16271 l -14.52383495,1.09902 c 0.0150852,39.19108 -0.81787636,-91.35243 0.0474106,117.71288 l 14.32173635,-0.006 71.608706,-0.0257 85.930452,-0.0308 85.93045,-0.0308 85.93044,-0.0308 85.93044,-0.0308 71.6087,-0.0257 14.32174,-0.004 z"
       fill="#f36575"
       id="path2-2"
       sodipodi:nodetypes="ccscscccccccccccc"
       style="stroke-width:0.555801" />
    <path
       d="m 517.80748,490.17182 c -28.08812,9.10557 -63.79659,13.39036 -88.85552,13.72379 -28.64341,0.17201 -55.27967,5.57395 -83.92317,5.5842 -28.64347,0.0102 -57.2839,7.56987 -85.92798,6.12416 -28.64403,-1.39181 -57.29175,-11.84288 -85.9365,-14.96025 -28.64474,-3.11737 -57.28657,0.99112 -85.930346,0.30033 C 56.653206,501.30903 31.065326,488.4904 1.0128514,490.45962 l 0.3202588,83.85218 14.3217368,-0.006 71.608705,-0.0255 85.930468,-0.0308 85.93043,-0.0308 85.93046,-0.0308 85.93045,-0.0308 71.6087,-0.0257 14.32174,-0.004 z"
       fill="#e00e38"
       id="path4-3"
       sodipodi:nodetypes="ccscscccccccccccc"
       style="stroke-width:0.555801" />
    <path
       d="m 517.25069,532.91186 c -30.81488,-1.14791 -61.21453,-4.34177 -86.30839,-2.7936 -28.6427,1.95151 -57.28329,9.1876 -85.92702,8.55074 -28.64375,-0.63686 -57.29063,-9.0388 -85.93563,-12.80326 -28.64501,-3.76446 -57.28814,-2.89145 -85.93022,0.56995 -28.64212,3.40747 -57.28321,9.34938 -85.926263,10.43811 -28.643064,1.0887 -57.288046,-2.67574 -71.610559,-4.558 l -14.3224906,-1.88223 0.01724,43.13945 14.3217366,-0.006 71.608706,-0.0255 85.93045,-0.0308 85.93045,-0.0308 85.93044,-0.0308 85.93044,-0.0308 71.63433,0.71316 22.79667,0.40941 z"
       fill="#a5072d"
       id="path6-9"
       sodipodi:nodetypes="ccsscssccccccccccc"
       style="stroke-width:0.555801" />
  </g>
</svg>
